$MeshFormat
2.2 0 8
$EndMeshFormat
$Nodes
14
1 0 0 1
2 0 0 0
3 0 1 1
4 0 1 0
5 1 0 1
6 1 0 0
7 1 1 1
8 1 1 0
9 0 0.5 0.5
10 1 0.5 0.5
11 0.5 0 0.5
12 0.5 1 0.5
13 0.5 0.5 0
14 0.5 0.5 1
$EndNodes
$Elements
68
1 15 2 0 1 1
2 15 2 0 2 2
3 15 2 0 3 3
4 15 2 0 4 4
5 15 2 0 5 5
6 15 2 0 6 6
7 15 2 0 7 7
8 15 2 0 8 8
9 1 2 0 1 2 1
10 1 2 0 2 1 3
11 1 2 0 3 4 3
12 1 2 0 4 2 4
13 1 2 0 5 6 5
14 1 2 0 6 5 7
15 1 2 0 7 8 7
16 1 2 0 8 6 8
17 1 2 0 9 2 6
18 1 2 0 10 1 5
19 1 2 0 11 4 8
20 1 2 0 12 3 7
21 2 2 0 1 2 1 9
22 2 2 0 1 1 3 9
23 2 2 0 1 4 2 9
24 2 2 0 1 3 4 9
25 2 2 0 2 6 10 5
26 2 2 0 2 5 10 7
27 2 2 0 2 8 10 6
28 2 2 0 2 7 10 8
29 2 2 0 3 1 2 11
30 2 2 0 3 5 1 11
31 2 2 0 3 2 6 11
32 2 2 0 3 6 5 11
33 2 2 0 4 3 12 4
34 2 2 0 4 7 12 3
35 2 2 0 4 4 12 8
36 2 2 0 4 8 12 7
37 2 2 0 5 2 4 13
38 2 2 0 5 6 2 13
39 2 2 0 5 4 8 13
40 2 2 0 5 8 6 13
41 2 2 0 6 1 14 3
42 2 2 0 6 5 14 1
43 2 2 0 6 3 14 7
44 2 2 0 6 7 14 5
45 4 2 0 1 9 11 14 1
46 4 2 0 1 7 10 12 8
47 4 2 0 1 9 11 13 10
48 4 2 0 1 13 6 11 2
49 4 2 0 1 13 11 6 10
50 4 2 0 1 9 2 13 11
51 4 2 0 1 9 10 14 11
52 4 2 0 1 4 13 9 2
53 4 2 0 1 9 2 11 1
54 4 2 0 1 5 1 14 11
55 4 2 0 1 9 10 13 12
56 4 2 0 1 13 6 8 10
57 4 2 0 1 9 14 10 12
58 4 2 0 1 13 8 12 10
59 4 2 0 1 9 1 14 3
60 4 2 0 1 9 3 14 12
61 4 2 0 1 4 3 9 12
62 4 2 0 1 7 10 14 12
63 4 2 0 1 5 6 11 10
64 4 2 0 1 7 12 14 3
65 4 2 0 1 5 11 14 10
66 4 2 0 1 5 14 7 10
67 4 2 0 1 4 12 13 8
68 4 2 0 1 4 12 9 13
$EndElements
