$MeshFormat
2.2 0 8
$EndMeshFormat
$Nodes
28
1 0 0 1
2 0 0 0
3 0 1 1
4 0 1 0
5 1 0 0
6 1 0 1
7 1 1 1
8 1 1 0
9 0.25 0.25 0.75
10 0.25 0.25 0.25
11 0.25 0.75 0.75
12 0.25 0.75 0.25
13 0.75 0.25 0.25
14 0.75 0.25 0.75
15 0.75 0.75 0.75
16 0.75 0.75 0.25
17 0 0.5 0.5
18 0.5 0 0.5
19 0.5 0.5 1
20 0.5 1 0.5
21 0.5 0.5 0
22 1 0.5 0.5
23 0.25 0.5 0.5
24 0.5 0.25 0.5
25 0.5 0.5 0.75
26 0.5 0.75 0.5
27 0.5 0.5 0.25
28 0.75 0.5 0.5
$EndNodes
$Elements
160
1 15 2 0 1 1
2 15 2 0 2 2
3 15 2 0 3 3
4 15 2 0 4 4
5 15 2 0 5 5
6 15 2 0 6 6
7 15 2 0 7 7
8 15 2 0 8 8
9 15 2 0 9 9
10 15 2 0 10 10
11 15 2 0 11 11
12 15 2 0 12 12
13 15 2 0 13 13
14 15 2 0 14 14
15 15 2 0 15 15
16 15 2 0 16 16
17 1 2 0 1 2 1
18 1 2 0 2 1 3
19 1 2 0 3 4 3
20 1 2 0 4 2 4
21 1 2 0 5 2 5
22 1 2 0 6 5 6
23 1 2 0 7 1 6
24 1 2 0 8 3 7
25 1 2 0 9 6 7
26 1 2 0 10 4 8
27 1 2 0 11 8 7
28 1 2 0 12 5 8
29 1 2 0 13 10 9
30 1 2 0 14 9 11
31 1 2 0 15 12 11
32 1 2 0 16 10 12
33 1 2 0 17 10 13
34 1 2 0 18 13 14
35 1 2 0 19 9 14
36 1 2 0 20 11 15
37 1 2 0 21 14 15
38 1 2 0 22 12 16
39 1 2 0 23 16 15
40 1 2 0 24 13 16
41 2 2 0 1 2 1 17
42 2 2 0 1 1 3 17
43 2 2 0 1 4 2 17
44 2 2 0 1 3 4 17
45 2 2 0 2 1 2 18
46 2 2 0 2 6 1 18
47 2 2 0 2 2 5 18
48 2 2 0 2 5 6 18
49 2 2 0 3 1 19 3
50 2 2 0 3 6 19 1
51 2 2 0 3 3 19 7
52 2 2 0 3 7 19 6
53 2 2 0 4 3 20 4
54 2 2 0 4 7 20 3
55 2 2 0 4 4 20 8
56 2 2 0 4 8 20 7
57 2 2 0 5 2 4 21
58 2 2 0 5 5 2 21
59 2 2 0 5 4 8 21
60 2 2 0 5 8 5 21
61 2 2 0 6 5 22 6
62 2 2 0 6 8 22 5
63 2 2 0 6 6 22 7
64 2 2 0 6 7 22 8
65 2 2 0 7 10 23 9
66 2 2 0 7 9 23 11
67 2 2 0 7 12 23 10
68 2 2 0 7 11 23 12
69 2 2 0 8 9 24 10
70 2 2 0 8 14 24 9
71 2 2 0 8 10 24 13
72 2 2 0 8 13 24 14
73 2 2 0 9 9 11 25
74 2 2 0 9 14 9 25
75 2 2 0 9 11 15 25
76 2 2 0 9 15 14 25
77 2 2 0 10 11 12 26
78 2 2 0 10 15 11 26
79 2 2 0 10 12 16 26
80 2 2 0 10 16 15 26
81 2 2 0 11 10 27 12
82 2 2 0 11 13 27 10
83 2 2 0 11 12 27 16
84 2 2 0 11 16 27 13
85 2 2 0 12 13 14 28
86 2 2 0 12 16 13 28
87 2 2 0 12 14 15 28
88 2 2 0 12 15 16 28
89 4 2 0 3 20 26 11 12
90 4 2 0 3 27 21 10 12
91 4 2 0 3 14 19 6 15
92 4 2 0 3 9 10 17 23
93 4 2 0 3 5 14 13 18
94 4 2 0 3 22 7 16 15
95 4 2 0 3 17 12 23 10
96 4 2 0 3 14 6 1 18
97 4 2 0 3 17 2 10 1
98 4 2 0 3 13 14 24 18
99 4 2 0 3 9 14 19 1
100 4 2 0 3 11 23 17 12
101 4 2 0 3 27 10 21 13
102 4 2 0 3 13 24 10 18
103 4 2 0 3 9 19 14 25
104 4 2 0 3 9 10 24 18
105 4 2 0 3 9 17 11 23
106 4 2 0 3 14 25 19 15
107 4 2 0 3 9 10 18 1
108 4 2 0 3 17 2 12 10
109 4 2 0 3 9 11 17 1
110 4 2 0 3 16 26 20 12
111 4 2 0 3 22 13 16 5
112 4 2 0 3 14 1 6 19
113 4 2 0 3 16 7 20 15
114 4 2 0 3 9 18 14 1
115 4 2 0 3 2 18 10 1
116 4 2 0 3 3 12 11 17
117 4 2 0 3 11 19 25 15
118 4 2 0 3 4 12 17 2
119 4 2 0 3 16 8 20 7
120 4 2 0 3 3 17 11 1
121 4 2 0 3 20 15 3 11
122 4 2 0 3 9 17 10 1
123 4 2 0 3 9 24 14 18
124 4 2 0 3 16 13 27 21
125 4 2 0 3 16 8 5 21
126 4 2 0 3 3 19 11 15
127 4 2 0 3 7 15 6 19
128 4 2 0 3 3 1 11 19
129 4 2 0 3 22 14 6 15
130 4 2 0 3 22 28 14 15
131 4 2 0 3 13 2 18 10
132 4 2 0 3 22 6 7 15
133 4 2 0 3 22 13 5 14
134 4 2 0 3 5 6 14 18
135 4 2 0 3 21 2 13 10
136 4 2 0 3 21 12 2 10
137 4 2 0 3 4 12 3 17
138 4 2 0 3 4 2 21 12
139 4 2 0 3 9 25 11 19
140 4 2 0 3 9 19 11 1
141 4 2 0 3 20 7 3 15
142 4 2 0 3 22 16 13 28
143 4 2 0 3 16 20 4 12
144 4 2 0 3 16 21 27 12
145 4 2 0 3 7 19 3 15
146 4 2 0 3 22 28 13 14
147 4 2 0 3 20 26 15 11
148 4 2 0 3 16 8 4 20
149 4 2 0 3 5 18 13 2
150 4 2 0 3 5 13 21 2
151 4 2 0 3 20 11 3 12
152 4 2 0 3 16 21 5 13
153 4 2 0 3 4 12 20 3
154 4 2 0 3 16 12 4 21
155 4 2 0 3 16 21 4 8
156 4 2 0 3 16 20 26 15
157 4 2 0 3 22 16 28 15
158 4 2 0 3 22 14 5 6
159 4 2 0 3 22 5 16 8
160 4 2 0 3 22 8 16 7
$EndElements
