$MeshFormat
2.2 0 8
$EndMeshFormat
$Nodes
75
1 0 0 1
2 0 0 0
3 0 1 1
4 0 1 0
5 1 0 0
6 1 0 1
7 1 1 1
8 1 1 0
9 0.125 0.125 0.375
10 0.125 0.125 0.125
11 0.125 0.375 0.375
12 0.125 0.375 0.125
13 0.375 0.125 0.125
14 0.375 0.125 0.375
15 0.375 0.375 0.375
16 0.375 0.375 0.125
17 0.625 0.625 0.875
18 0.625 0.625 0.625
19 0.625 0.875 0.875
20 0.625 0.875 0.625
21 0.875 0.625 0.625
22 0.875 0.625 0.875
23 0.875 0.875 0.875
24 0.875 0.875 0.625
25 0 0 0.5000000000000016
26 0 0.5000000000000016 1
27 0 1 0.5000000000000016
28 0 0.5000000000000016 0
29 0.5000000000000016 0 0
30 1 0 0.5000000000000016
31 0.5000000000000016 0 1
32 0.5000000000000016 1 1
33 1 0.5000000000000016 1
34 0.5000000000000016 1 0
35 1 1 0.5000000000000016
36 1 0.5000000000000016 0
37 0 0.2613884839650154 0.2613884839650154
38 0 0.375 0.6250000000000007
39 0 0.6425230806608361 0.3508564139941694
40 0 0.7187499999999996 0.7187499999999994
41 0.2613884839650154 0 0.2613884839650154
42 0.6250000000000007 0 0.375
43 0.3508564139941694 0 0.6425230806608361
44 0.7187499999999994 0 0.7187499999999996
45 0.2613884839650154 0.2613884839650154 1
46 0.375 0.6250000000000007 1
47 0.6425230806608361 0.3508564139941694 1
48 0.7187499999999996 0.7187499999999994 1
49 0.2613884839650154 1 0.2613884839650154
50 0.6250000000000007 1 0.375
51 0.3508564139941694 1 0.6425230806608361
52 0.7187499999999994 1 0.7187499999999996
53 0.2613884839650154 0.2613884839650154 0
54 0.375 0.6250000000000007 0
55 0.6425230806608361 0.3508564139941694 0
56 0.7187499999999996 0.7187499999999994 0
57 1 0.2613884839650154 0.2613884839650154
58 1 0.375 0.6250000000000007
59 1 0.6425230806608361 0.3508564139941694
60 1 0.7187499999999996 0.7187499999999994
61 0.125 0.25 0.25
62 0.25 0.125 0.25
63 0.25 0.25 0.375
64 0.25 0.375 0.25
65 0.25 0.25 0.125
66 0.375 0.25 0.25
67 0.625 0.75 0.75
68 0.75 0.625 0.75
69 0.75 0.75 0.875
70 0.75 0.875 0.75
71 0.75 0.75 0.625
72 0.875 0.75 0.75
73 0.6451127094326298 0.3548872905673703 0.5000000000000001
74 0.5346681247819804 0.5823714060770522 0.3094431892076875
75 0.4121352756870384 0.4600168518586525 0.6922381423951395
$EndNodes
$Elements
422
1 15 2 0 1 1
2 15 2 0 2 2
3 15 2 0 3 3
4 15 2 0 4 4
5 15 2 0 5 5
6 15 2 0 6 6
7 15 2 0 7 7
8 15 2 0 8 8
9 15 2 0 9 9
10 15 2 0 10 10
11 15 2 0 11 11
12 15 2 0 12 12
13 15 2 0 13 13
14 15 2 0 14 14
15 15 2 0 15 15
16 15 2 0 16 16
17 15 2 0 17 17
18 15 2 0 18 18
19 15 2 0 19 19
20 15 2 0 20 20
21 15 2 0 21 21
22 15 2 0 22 22
23 15 2 0 23 23
24 15 2 0 24 24
25 1 2 0 1 2 25
26 1 2 0 1 25 1
27 1 2 0 2 1 26
28 1 2 0 2 26 3
29 1 2 0 3 4 27
30 1 2 0 3 27 3
31 1 2 0 4 2 28
32 1 2 0 4 28 4
33 1 2 0 5 2 29
34 1 2 0 5 29 5
35 1 2 0 6 5 30
36 1 2 0 6 30 6
37 1 2 0 7 1 31
38 1 2 0 7 31 6
39 1 2 0 8 3 32
40 1 2 0 8 32 7
41 1 2 0 9 6 33
42 1 2 0 9 33 7
43 1 2 0 10 4 34
44 1 2 0 10 34 8
45 1 2 0 11 8 35
46 1 2 0 11 35 7
47 1 2 0 12 5 36
48 1 2 0 12 36 8
49 1 2 0 13 10 9
50 1 2 0 14 9 11
51 1 2 0 15 12 11
52 1 2 0 16 10 12
53 1 2 0 17 10 13
54 1 2 0 18 13 14
55 1 2 0 19 9 14
56 1 2 0 20 11 15
57 1 2 0 21 14 15
58 1 2 0 22 12 16
59 1 2 0 23 16 15
60 1 2 0 24 13 16
61 1 2 0 25 18 17
62 1 2 0 26 17 19
63 1 2 0 27 20 19
64 1 2 0 28 18 20
65 1 2 0 29 18 21
66 1 2 0 30 21 22
67 1 2 0 31 17 22
68 1 2 0 32 19 23
69 1 2 0 33 22 23
70 1 2 0 34 20 24
71 1 2 0 35 24 23
72 1 2 0 36 21 24
73 2 2 0 1 27 4 39
74 2 2 0 1 1 26 38
75 2 2 0 1 25 1 38
76 2 2 0 1 4 28 39
77 2 2 0 1 26 3 40
78 2 2 0 1 3 27 40
79 2 2 0 1 2 25 37
80 2 2 0 1 28 2 37
81 2 2 0 1 27 39 40
82 2 2 0 1 37 25 38
83 2 2 0 1 37 38 39
84 2 2 0 1 38 26 40
85 2 2 0 1 39 38 40
86 2 2 0 1 28 37 39
87 2 2 0 2 31 1 43
88 2 2 0 2 5 30 42
89 2 2 0 2 29 5 42
90 2 2 0 2 1 25 43
91 2 2 0 2 30 6 44
92 2 2 0 2 6 31 44
93 2 2 0 2 25 2 41
94 2 2 0 2 2 29 41
95 2 2 0 2 31 43 44
96 2 2 0 2 41 29 42
97 2 2 0 2 41 42 43
98 2 2 0 2 42 30 44
99 2 2 0 2 43 42 44
100 2 2 0 2 25 41 43
101 2 2 0 3 33 47 6
102 2 2 0 3 3 46 32
103 2 2 0 3 26 46 3
104 2 2 0 3 6 47 31
105 2 2 0 3 32 48 7
106 2 2 0 3 7 48 33
107 2 2 0 3 1 45 26
108 2 2 0 3 31 45 1
109 2 2 0 3 33 48 47
110 2 2 0 3 45 46 26
111 2 2 0 3 45 47 46
112 2 2 0 3 46 48 32
113 2 2 0 3 47 48 46
114 2 2 0 3 31 47 45
115 2 2 0 4 32 51 3
116 2 2 0 4 8 50 35
117 2 2 0 4 34 50 8
118 2 2 0 4 3 51 27
119 2 2 0 4 7 52 32
120 2 2 0 4 35 52 7
121 2 2 0 4 27 49 4
122 2 2 0 4 4 49 34
123 2 2 0 4 32 52 51
124 2 2 0 4 49 50 34
125 2 2 0 4 49 51 50
126 2 2 0 4 50 52 35
127 2 2 0 4 51 52 50
128 2 2 0 4 27 51 49
129 2 2 0 5 36 5 55
130 2 2 0 5 4 34 54
131 2 2 0 5 28 4 54
132 2 2 0 5 5 29 55
133 2 2 0 5 34 8 56
134 2 2 0 5 8 36 56
135 2 2 0 5 2 28 53
136 2 2 0 5 29 2 53
137 2 2 0 5 36 55 56
138 2 2 0 5 53 28 54
139 2 2 0 5 53 54 55
140 2 2 0 5 54 34 56
141 2 2 0 5 55 54 56
142 2 2 0 5 29 53 55
143 2 2 0 6 35 59 8
144 2 2 0 6 6 58 33
145 2 2 0 6 30 58 6
146 2 2 0 6 8 59 36
147 2 2 0 6 33 60 7
148 2 2 0 6 7 60 35
149 2 2 0 6 5 57 30
150 2 2 0 6 36 57 5
151 2 2 0 6 35 60 59
152 2 2 0 6 57 58 30
153 2 2 0 6 57 59 58
154 2 2 0 6 58 60 33
155 2 2 0 6 59 60 58
156 2 2 0 6 36 59 57
157 2 2 0 7 10 61 9
158 2 2 0 7 9 61 11
159 2 2 0 7 12 61 10
160 2 2 0 7 11 61 12
161 2 2 0 8 9 62 10
162 2 2 0 8 14 62 9
163 2 2 0 8 10 62 13
164 2 2 0 8 13 62 14
165 2 2 0 9 9 11 63
166 2 2 0 9 14 9 63
167 2 2 0 9 11 15 63
168 2 2 0 9 15 14 63
169 2 2 0 10 11 12 64
170 2 2 0 10 15 11 64
171 2 2 0 10 12 16 64
172 2 2 0 10 16 15 64
173 2 2 0 11 10 65 12
174 2 2 0 11 13 65 10
175 2 2 0 11 12 65 16
176 2 2 0 11 16 65 13
177 2 2 0 12 13 14 66
178 2 2 0 12 16 13 66
179 2 2 0 12 14 15 66
180 2 2 0 12 15 16 66
181 2 2 0 13 18 67 17
182 2 2 0 13 17 67 19
183 2 2 0 13 20 67 18
184 2 2 0 13 19 67 20
185 2 2 0 14 17 68 18
186 2 2 0 14 22 68 17
187 2 2 0 14 18 68 21
188 2 2 0 14 21 68 22
189 2 2 0 15 17 19 69
190 2 2 0 15 22 17 69
191 2 2 0 15 19 23 69
192 2 2 0 15 23 22 69
193 2 2 0 16 19 20 70
194 2 2 0 16 23 19 70
195 2 2 0 16 20 24 70
196 2 2 0 16 24 23 70
197 2 2 0 17 18 71 20
198 2 2 0 17 21 71 18
199 2 2 0 17 20 71 24
200 2 2 0 17 24 71 21
201 2 2 0 18 21 22 72
202 2 2 0 18 24 21 72
203 2 2 0 18 22 23 72
204 2 2 0 18 23 24 72
205 4 2 0 5 16 65 53 13
206 4 2 0 5 73 21 58 59
207 4 2 0 5 36 74 55 57
208 4 2 0 5 74 20 51 18
209 4 2 0 5 64 54 16 12
210 4 2 0 5 73 47 58 68
211 4 2 0 5 73 44 43 42
212 4 2 0 5 43 63 9 38
213 4 2 0 5 62 13 41 10
214 4 2 0 5 73 14 66 42
215 4 2 0 5 54 34 4 49
216 4 2 0 5 73 57 30 42
217 4 2 0 5 72 22 21 60
218 4 2 0 5 74 73 66 55
219 4 2 0 5 9 37 2 25
220 4 2 0 5 48 17 46 19
221 4 2 0 5 73 68 58 21
222 4 2 0 5 2 37 10 12
223 4 2 0 5 73 75 47 68
224 4 2 0 5 9 11 61 37
225 4 2 0 5 48 23 7 33
226 4 2 0 5 58 60 59 21
227 4 2 0 5 20 52 70 24
228 4 2 0 5 42 14 13 41
229 4 2 0 5 67 46 17 19
230 4 2 0 5 74 16 64 54
231 4 2 0 5 73 66 14 15
232 4 2 0 5 39 12 37 28
233 4 2 0 5 39 12 11 37
234 4 2 0 5 9 25 38 37
235 4 2 0 5 74 39 75 51
236 4 2 0 5 75 14 43 63
237 4 2 0 5 2 28 37 12
238 4 2 0 5 75 14 63 15
239 4 2 0 5 22 47 48 17
240 4 2 0 5 73 43 75 14
241 4 2 0 5 43 25 9 41
242 4 2 0 5 9 38 11 37
243 4 2 0 5 74 50 49 51
244 4 2 0 5 53 2 13 10
245 4 2 0 5 16 53 65 12
246 4 2 0 5 73 42 30 44
247 4 2 0 5 62 41 13 14
248 4 2 0 5 13 41 2 29
249 4 2 0 5 13 2 41 10
250 4 2 0 5 46 40 26 3
251 4 2 0 5 75 46 67 51
252 4 2 0 5 43 9 25 38
253 4 2 0 5 75 40 46 51
254 4 2 0 5 20 52 51 19
255 4 2 0 5 75 51 67 18
256 4 2 0 5 74 21 71 18
257 4 2 0 5 58 47 44 6
258 4 2 0 5 74 16 66 15
259 4 2 0 5 75 11 63 38
260 4 2 0 5 48 7 23 32
261 4 2 0 5 75 63 11 15
262 4 2 0 5 74 49 54 39
263 4 2 0 5 74 73 55 57
264 4 2 0 5 74 49 50 34
265 4 2 0 5 74 75 73 18
266 4 2 0 5 75 11 39 15
267 4 2 0 5 75 39 11 40
268 4 2 0 5 48 32 23 19
269 4 2 0 5 46 32 51 3
270 4 2 0 5 75 51 39 40
271 4 2 0 5 64 39 54 12
272 4 2 0 5 39 37 11 38
273 4 2 0 5 74 20 50 51
274 4 2 0 5 74 59 50 71
275 4 2 0 5 74 54 64 39
276 4 2 0 5 74 64 16 15
277 4 2 0 5 74 73 21 18
278 4 2 0 5 22 48 23 69
279 4 2 0 5 48 69 17 19
280 4 2 0 5 73 42 43 14
281 4 2 0 5 74 21 59 71
282 4 2 0 5 73 42 66 55
283 4 2 0 5 50 24 20 71
284 4 2 0 5 20 70 52 19
285 4 2 0 5 24 23 60 35
286 4 2 0 5 50 71 59 24
287 4 2 0 5 50 8 56 34
288 4 2 0 5 43 9 14 41
289 4 2 0 5 31 44 47 6
290 4 2 0 5 59 71 21 24
291 4 2 0 5 74 66 16 55
292 4 2 0 5 50 24 59 35
293 4 2 0 5 74 56 54 34
294 4 2 0 5 46 3 51 40
295 4 2 0 5 74 71 20 18
296 4 2 0 5 61 37 11 12
297 4 2 0 5 61 37 12 10
298 4 2 0 5 9 10 2 37
299 4 2 0 5 73 57 58 30
300 4 2 0 5 22 23 48 33
301 4 2 0 5 74 56 59 36
302 4 2 0 5 22 68 47 17
303 4 2 0 5 48 23 69 19
304 4 2 0 5 53 65 12 10
305 4 2 0 5 53 12 2 10
306 4 2 0 5 31 75 44 43
307 4 2 0 5 42 13 55 29
308 4 2 0 5 73 68 21 18
309 4 2 0 5 53 2 12 28
310 4 2 0 5 42 13 29 41
311 4 2 0 5 7 52 35 23
312 4 2 0 5 7 32 52 23
313 4 2 0 5 7 60 33 23
314 4 2 0 5 73 44 75 43
315 4 2 0 5 52 23 24 35
316 4 2 0 5 22 17 48 69
317 4 2 0 5 52 23 32 19
318 4 2 0 5 75 63 43 38
319 4 2 0 5 75 26 46 40
320 4 2 0 5 51 19 52 32
321 4 2 0 5 46 51 32 19
322 4 2 0 5 5 55 42 57
323 4 2 0 5 73 58 47 44
324 4 2 0 5 74 66 73 15
325 4 2 0 5 75 38 26 40
326 4 2 0 5 36 74 57 59
327 4 2 0 5 58 30 6 44
328 4 2 0 5 58 47 22 68
329 4 2 0 5 73 59 58 57
330 4 2 0 5 74 71 50 20
331 4 2 0 5 16 54 53 12
332 4 2 0 5 54 39 4 28
333 4 2 0 5 53 29 13 2
334 4 2 0 5 16 53 55 13
335 4 2 0 5 53 13 65 10
336 4 2 0 5 70 52 19 23
337 4 2 0 5 50 35 59 8
338 4 2 0 5 70 24 52 23
339 4 2 0 5 72 22 60 23
340 4 2 0 5 75 40 11 38
341 4 2 0 5 9 37 61 10
342 4 2 0 5 9 25 2 41
343 4 2 0 5 9 41 2 10
344 4 2 0 5 75 47 68 17
345 4 2 0 5 43 38 25 1
346 4 2 0 5 62 9 10 41
347 4 2 0 5 75 17 68 18
348 4 2 0 5 74 15 73 75
349 4 2 0 5 75 43 31 45
350 4 2 0 5 48 47 46 17
351 4 2 0 5 75 31 47 45
352 4 2 0 5 73 30 58 44
353 4 2 0 5 43 31 45 1
354 4 2 0 5 31 75 47 44
355 4 2 0 5 39 38 11 40
356 4 2 0 5 27 39 51 40
357 4 2 0 5 27 39 4 49
358 4 2 0 5 27 51 39 49
359 4 2 0 5 59 36 56 8
360 4 2 0 5 30 57 5 42
361 4 2 0 5 43 45 38 1
362 4 2 0 5 75 45 46 26
363 4 2 0 5 5 57 36 55
364 4 2 0 5 5 42 55 29
365 4 2 0 5 74 56 36 55
366 4 2 0 5 59 24 21 60
367 4 2 0 5 59 24 60 35
368 4 2 0 5 62 14 9 41
369 4 2 0 5 26 38 45 1
370 4 2 0 5 75 45 26 38
371 4 2 0 5 67 19 20 51
372 4 2 0 5 72 21 24 60
373 4 2 0 5 67 51 46 19
374 4 2 0 5 72 60 24 23
375 4 2 0 5 7 35 60 23
376 4 2 0 5 58 22 47 33
377 4 2 0 5 74 49 39 51
378 4 2 0 5 50 51 20 52
379 4 2 0 5 50 59 56 8
380 4 2 0 5 58 33 47 6
381 4 2 0 5 73 47 75 44
382 4 2 0 5 53 55 13 29
383 4 2 0 5 54 4 39 49
384 4 2 0 5 43 9 63 14
385 4 2 0 5 54 39 28 12
386 4 2 0 5 74 21 73 59
387 4 2 0 5 54 28 53 12
388 4 2 0 5 48 46 32 19
389 4 2 0 5 22 33 48 47
390 4 2 0 5 75 38 43 45
391 4 2 0 5 63 11 9 38
392 4 2 0 5 75 47 46 45
393 4 2 0 5 75 46 47 17
394 4 2 0 5 75 17 67 46
395 4 2 0 5 27 51 3 40
396 4 2 0 5 74 54 49 34
397 4 2 0 5 74 55 54 56
398 4 2 0 5 74 15 75 39
399 4 2 0 5 16 53 54 55
400 4 2 0 5 67 51 20 18
401 4 2 0 5 43 14 42 41
402 4 2 0 5 74 51 75 18
403 4 2 0 5 66 13 16 55
404 4 2 0 5 66 55 42 13
405 4 2 0 5 66 13 42 14
406 4 2 0 5 74 39 64 15
407 4 2 0 5 74 50 56 34
408 4 2 0 5 64 11 39 12
409 4 2 0 5 74 56 50 59
410 4 2 0 5 74 59 73 57
411 4 2 0 5 64 39 11 15
412 4 2 0 5 22 33 60 23
413 4 2 0 5 50 52 20 24
414 4 2 0 5 50 52 24 35
415 4 2 0 5 58 68 22 21
416 4 2 0 5 58 22 33 60
417 4 2 0 5 58 21 22 60
418 4 2 0 5 75 67 17 18
419 4 2 0 5 73 57 42 55
420 4 2 0 5 73 75 68 18
421 4 2 0 5 73 14 75 15
422 4 2 0 5 74 55 16 54
$EndElements
